<?xml version="1.0" encoding="UTF-8" standalone="no"?>
<svg
   xmlns:dc="http://purl.org/dc/elements/1.1/"
   xmlns:cc="http://creativecommons.org/ns#"
   xmlns:rdf="http://www.w3.org/1999/02/22-rdf-syntax-ns#"
   xmlns:svg="http://www.w3.org/2000/svg"
   xmlns="http://www.w3.org/2000/svg"
   xmlns:sodipodi="http://sodipodi.sourceforge.net/DTD/sodipodi-0.dtd"
   xmlns:inkscape="http://www.inkscape.org/namespaces/inkscape"
   width="1000pt"
   height="285pt"
   viewBox="0 0 1000 285"
   version="1.1"
   id="svg2"
   inkscape:version="0.48.3.1 r9886"
   sodipodi:docname="logo.svg">
  <metadata
     id="metadata90">
    <rdf:RDF>
      <cc:Work
         rdf:about="">
        <dc:format>image/svg+xml</dc:format>
        <dc:type
           rdf:resource="http://purl.org/dc/dcmitype/StillImage" />
      </cc:Work>
    </rdf:RDF>
  </metadata>
  <defs
     id="defs88" />
  <sodipodi:namedview
     pagecolor="#ffffff"
     bordercolor="#666666"
     borderopacity="1"
     objecttolerance="10"
     gridtolerance="10"
     guidetolerance="10"
     inkscape:pageopacity="0"
     inkscape:pageshadow="2"
     inkscape:window-width="1280"
     inkscape:window-height="948"
     id="namedview86"
     showgrid="false"
     inkscape:zoom="1.009153"
     inkscape:cx="665.87246"
     inkscape:cy="86.190448"
     inkscape:window-x="0"
     inkscape:window-y="24"
     inkscape:window-maximized="1"
     inkscape:current-layer="svg2" />
  <g
     id="#0051aadc"
     transform="matrix(1.2173287,0,0,1.2173287,-72.413387,5.9678088)">
    <path
       d="m 330.02,7.03 c 5.34,-3.32 11.68,-5.87 18.08,-4.79 5.59,0.83 10.69,4.25 13.76,8.96 1.8,4.72 -1.52,9.74 -5.03,12.72 -6.27,1.86 -13.13,-0.89 -19.28,1.65 -5.95,4.94 -10.12,12.62 -9.57,20.49 -0.08,5.05 5.04,9.2 9.93,8.59 2.01,-0.25 3.45,-1.81 4.94,-3.02 -4.32,-1.71 -9.64,-4.27 -10,-9.58 -0.81,-4.29 3.32,-7.17 6.88,-8.33 6.47,-1.8 13.25,-0.52 19.81,-0.01 4.17,0.11 5.84,4.83 5.44,8.36 -0.78,9.06 -3.98,18.69 -11.51,24.35 -5.78,4.42 -13.49,4.24 -20.4,3.96 -7.11,-0.37 -14.95,-3.29 -18.23,-10.07 -8.57,-18.25 -1.64,-42.23 15.18,-53.28 z"
       id="path5"
       inkscape:connector-curvature="0"
       style="opacity:0.86000001;fill:#0051aa" />
  </g>
  <g
     id="#0051ace0"
     transform="matrix(1.2173287,0,0,1.2173287,-72.413387,5.9678088)">
    <path
       d="m 503.39,2.63 c 3.31,0.87 6.63,1.76 9.95,2.63 -0.25,9.61 -1.17,19.18 -1.55,28.78 0.21,11.4 1.97,22.92 -0.33,34.23 -3.49,-0.2 -6.97,-0.41 -10.45,-0.62 1.59,-21.64 -1.71,-43.55 2.38,-65.02 z"
       id="path8"
       inkscape:connector-curvature="0"
       style="opacity:0.87999998;fill:#0051ac" />
  </g>
  <g
     id="#0059b5e1"
     transform="matrix(1.2173287,0,0,1.2173287,-72.413387,5.9678088)">
    <path
       d="m 485.5,12.94 c 0.89,-2.93 1.89,-5.82 3.02,-8.67 3.17,0.88 6.87,1.32 9.1,4.04 0.35,3.37 -1.12,6.7 -1.83,9.98 -3.63,-1.3 -8.11,-1.71 -10.29,-5.35 z"
       id="path11"
       inkscape:connector-curvature="0"
       style="opacity:0.87999998;fill:#0059b5" />
  </g>
  <g
     id="#0050adde"
     transform="matrix(1.2173287,0,0,1.2173287,-72.413387,5.9678088)">
    <path
       d="m 460.64,12.54 c 3.48,-0.01 6.97,-0.01 10.45,0 -0.06,4.21 -0.21,8.43 -0.17,12.64 2.36,0.22 4.72,0.42 7.09,0.65 -0.05,2.78 -0.1,5.55 -0.12,8.33 -2.16,0.59 -4.33,1.12 -6.5,1.65 -0.14,8.17 -0.19,16.34 -0.22,24.51 3.39,-1.12 6.8,-2.18 10.26,-3.09 0.17,3.51 0,7.02 -0.31,10.52 -5.81,1.18 -11.66,2.14 -17.53,2.97 -6.23,-10.38 -4.84,-22.94 -4.6,-34.49 -2.73,-0.38 -5.46,-0.76 -8.18,-1.16 -0.05,-3.24 -0.1,-6.47 -0.11,-9.71 3.36,-0.19 6.72,-0.36 10.09,-0.53 -0.03,-4.09 -0.09,-8.19 -0.15,-12.29 z"
       id="path14"
       inkscape:connector-curvature="0"
       style="opacity:0.87000002;fill:#0050ad" />
  </g>
  <g
     id="#0053abdd"
     transform="matrix(1.2173287,0,0,1.2173287,-72.413387,5.9678088)">
    <path
       d="m 520.94,27.94 c 7.37,-5.24 16.54,-8.79 25.69,-7.37 2.44,0.35 4.14,2.62 4.72,4.89 1.02,4.03 -0.01,8.18 -0.94,12.12 -4.92,0.15 -7.99,-4.42 -12.55,-5.29 -2.97,0.05 -5.72,1.48 -8.51,2.33 6.1,3.21 13.15,4.98 18.18,9.92 4.09,3.49 4.02,9.56 3.18,14.41 -1.41,6.66 -8.49,10.34 -14.81,10.63 -7.41,0.38 -14.62,-2.86 -19.96,-7.86 0.33,-6.1 3.17,-11.58 5.56,-17.06 5.52,3.75 11.02,7.54 16.6,11.21 0.32,-1.99 0.65,-3.97 0.97,-5.95 -7.52,-2.28 -16.41,-3.58 -21.37,-10.37 -1.04,-3.92 -0.41,-9.14 3.24,-11.61 z"
       id="path17"
       inkscape:connector-curvature="0"
       style="opacity:0.87000002;fill:#0053ab" />
  </g>
  <g
     id="#0052abdf"
     transform="matrix(1.2173287,0,0,1.2173287,-72.413387,5.9678088)">
    <path
       d="m 415.14,21.57 c 4.27,0.21 8.43,1.15 12.37,2.79 4.79,0.58 9.88,-0.37 14.45,1.61 2.82,1.16 4.69,3.98 5.04,6.96 2.05,11.5 0.12,23.17 0.59,34.75 -3.95,0.12 -7.9,0.25 -11.85,0.36 0.54,-8.16 1.59,-16.27 2.49,-24.4 -2.36,-1.52 -4.73,-3.03 -7.09,-4.53 -8.04,7.43 -6.99,19.18 -8.14,29.1 -3.24,-0.05 -6.49,-0.09 -9.73,-0.08 0.74,-15.51 1.74,-31.02 1.87,-46.56 z"
       id="path20"
       inkscape:connector-curvature="0"
       style="opacity:0.87000002;fill:#0052ab" />
  </g>
  <g
     id="#0056abe3"
     transform="matrix(1.2173287,0,0,1.2173287,-72.413387,5.9678088)">
    <path
       d="m 485.9,22.21 c 4.06,1.18 8.12,2.35 12.19,3.54 -1.1,13.2 -1.96,26.43 -1.94,39.68 -2.93,0.05 -5.87,0.1 -8.8,0.12 -1.57,-14.39 -1.63,-28.89 -1.45,-43.34 z"
       id="path23"
       inkscape:connector-curvature="0"
       style="opacity:0.88999999;fill:#0056ab" />
  </g>
  <g
     id="#0052a6e0"
     transform="matrix(1.2173287,0,0,1.2173287,-72.413387,5.9678088)">
    <path
       d="m 380.11,26.12 c 8.17,-3.25 19.48,-1.68 24.21,6.46 1.51,3.39 2.78,7.91 0.43,11.19 -6.66,6.81 -16.48,8.82 -25.59,9.8 3.38,1.93 6.65,5.28 10.88,4.52 4.77,-0.81 8.33,-4.44 12.7,-6.24 2.36,1.46 4.69,2.96 6.9,4.63 -6.02,7.06 -15.23,11.69 -24.62,10.91 -4.62,-0.46 -9.59,-1.98 -12.54,-5.81 -8.75,-10.8 -4.88,-29.28 7.63,-35.46 m 12.37,5.98 c -5.4,2.72 -12.56,5.11 -13.99,11.8 7.49,0.49 15.14,-1.03 21.75,-4.62 -2.56,-2.43 -5.15,-4.81 -7.76,-7.18 z"
       id="path26"
       inkscape:connector-curvature="0"
       style="opacity:0.87999998;fill:#0052a6" />
  </g>
  <g
     id="#13130013"
     transform="matrix(1.2173287,0,0,1.2173287,-72.413387,5.9678088)">
    <path
       d="m 392.48,32.1 c 2.61,2.37 5.2,4.75 7.76,7.18 -6.61,3.59 -14.26,5.11 -21.75,4.62 1.43,-6.69 8.59,-9.08 13.99,-11.8 z"
       id="path29"
       inkscape:connector-curvature="0"
       style="opacity:0.07000002;fill:#131300" />
  </g>
  <g
     id="#0000006a"
     transform="matrix(1.2173287,0,0,1.2173287,-72.413387,5.9678088)">
    <path
       d="m 437.42,80.29 c 3.74,-2.33 8.33,-2.47 12.55,-3.36 5.48,15.25 9.15,31.09 11.86,47.04 13.29,-10.64 17.11,-28.09 22.76,-43.3 0.65,-2.71 3.81,-3.78 6.3,-3.3 3.99,0.8 7.32,3.3 10.63,5.5 -7.82,21.7 -16.38,43.12 -25.23,64.42 -1.72,4.04 -3.01,8.58 -6.53,11.48 -3.51,3.03 -8.56,4.93 -13.14,3.65 -2.89,-2.87 -4.36,-6.84 -5.2,-10.75 -1.38,-6.56 -2.37,-13.2 -3.63,-19.79 -3.03,-15.49 -7.07,-30.77 -11.59,-45.89 -0.77,-1.95 -0.74,-4.47 1.22,-5.7 z"
       id="path32"
       inkscape:connector-curvature="0"
       style="opacity:0.41999996;fill:#000000" />
    <path
       d="m 638.29,105.27 c 8.97,-5.06 19.29,-8.86 29.75,-7.5 2.88,0.19 4.99,2.54 6.4,4.85 2.94,5.09 2.91,12.22 -1.13,16.72 -0.98,1.53 -2.81,0.81 -4.18,0.46 -4,-1.35 -6.52,-5 -10.11,-7.02 -4.6,-0.3 -8.92,2.05 -12.5,4.72 8.46,3.87 18.14,6.3 24.56,13.48 7.1,9.3 4.21,25.35 -6.9,30.22 -10.26,4.32 -22.13,1.53 -31.36,-4.01 -1.92,-1.26 -4.65,-2.5 -4.66,-5.17 0.46,-7.26 3.58,-14 6.05,-20.75 8.96,3.43 15.91,11 25.45,13.05 -0.57,-2.33 -0.59,-4.92 -1.86,-6.99 -8.06,-3.7 -17.6,-4.51 -24.48,-10.54 -2.09,-2.07 -4.59,-4.54 -4.4,-7.73 0.16,-5.92 4.39,-10.98 9.37,-13.79 z"
       id="path34"
       inkscape:connector-curvature="0"
       style="opacity:0.41999996;fill:#000000" />
    <path
       d="m 578.28,107.17 c 4.78,0.06 9.56,-0.04 14.34,0.3 -0.1,10.07 -0.95,20.27 0.79,30.26 1.8,6.1 11.56,7.03 14.41,1.26 1.14,-10.23 -1.88,-20.32 -2.44,-30.5 4.74,-0.39 9.51,-0.43 14.27,-0.46 2.2,16.99 5.08,34.21 2.88,51.36 -6.32,2.35 -13.02,0.49 -19.53,0.8 -5.57,0.12 -11.38,0.6 -16.7,-1.39 -3.33,-1.2 -5.88,-4.21 -6.37,-7.73 -2.74,-14.48 -1.18,-29.27 -1.65,-43.9 z"
       id="path36"
       inkscape:connector-curvature="0"
       style="opacity:0.41999996;fill:#000000" />
  </g>
  <g
     id="#0000006e"
     transform="matrix(1.2173287,0,0,1.2173287,-72.413387,5.9678088)">
    <path
       d="m 511.38,77.55 c 4.1,-1.22 9.73,0.85 10.43,5.49 -0.05,2.76 0.2,5.95 -1.53,8.28 -4.82,4.82 -15.03,0.49 -14.42,-6.39 1.22,-2.73 2.43,-6.37 5.52,-7.38 z"
       id="path39"
       inkscape:connector-curvature="0"
       style="opacity:0.43000004;fill:#000000" />
  </g>
  <g
     id="#000000fe"
     transform="matrix(1.2173287,0,0,1.2173287,-72.413387,5.9678088)">
    <path
       d="m 338.95,85.87 c 3.33,-2.93 7.94,-2.93 12.04,-2.08 8.07,1.36 16.23,4.74 24.47,2.47 7.3,-1.32 15.51,-5.31 22.53,-1.01 7.07,5.01 7.96,14.32 11.05,21.76 3.19,8.77 11.82,13.83 16.05,21.95 1.84,3.55 2.08,7.94 0.4,11.6 -4.06,9.03 -13.86,14.18 -16.9,23.8 -2.55,7.51 -4.14,16.38 -10.96,21.35 -2.95,2.48 -7.01,2.06 -10.53,1.48 -7,-1.15 -13.8,-4.51 -21.03,-3.45 -7.4,1.22 -14.62,3.36 -22.02,4.62 -8.57,-4.2 -11.78,-13.81 -14.5,-22.25 -2.87,-10.68 -12.95,-16.96 -18.25,-26.24 -0.23,-3.14 -0.29,-6.32 0.05,-9.45 4.57,-7.28 11.24,-12.97 15.93,-20.16 4.21,-7.93 4.31,-18.33 11.67,-24.39 m 47.38,15.61 c -5.87,1.51 -11.09,5.49 -14.05,10.8 -6.14,11.15 -0.36,27.37 12.12,31.05 11.68,4.47 25.43,-4.19 27.87,-16.12 3.33,-14.32 -11.35,-29.9 -25.94,-25.73 m -38.89,6.93 c -7.17,2.26 -11.44,10.39 -9.61,17.6 0.98,5.98 6.31,10.44 12.03,11.69 9.38,1.32 18.84,-8.12 16.52,-17.6 -1.1,-8.6 -10.84,-14.11 -18.94,-11.69 m 28.39,55.45 c -11.3,3.97 -22.58,-1.89 -32.88,-6.03 0.36,2.03 0.78,4.04 1.22,6.05 9.48,6.56 21.84,8.26 32.9,5.27 11.41,-2.91 21.48,-10.68 27.02,-21.1 -1.72,-0.49 -3.47,-0.88 -5.22,-1.21 -6.33,7.19 -13.35,14.73 -23.04,17.02 z"
       id="path42"
       inkscape:connector-curvature="0"
       style="fill:#000000" />
  </g>
  <g
     id="#0000006c"
     transform="matrix(1.2173287,0,0,1.2173287,-72.413387,5.9678088)">
    <path
       d="m 506.27,100.27 c 5.11,1.47 10.32,2.63 15.34,4.42 -0.69,17.58 -0.98,35.19 -1.69,52.77 -3.91,0.22 -7.81,0.53 -11.72,0.71 -1.89,-19.24 -2.45,-38.59 -1.93,-57.9 z"
       id="path45"
       inkscape:connector-curvature="0"
       style="opacity:0.41999996;fill:#000000" />
  </g>
  <g
     id="#0000006b"
     transform="matrix(1.2173287,0,0,1.2173287,-72.413387,5.9678088)">
    <path
       d="m 530.55,108.15 c 0.37,-2.45 1.89,-4.91 4.46,-5.47 4.17,-1 8.13,1.04 12.03,2.19 7.41,0.28 14.82,-0.62 22.24,-0.53 1.75,3.18 4.04,6.13 5.06,9.65 0.9,2.69 -0.88,5.93 -3.73,6.38 -5.78,1.41 -10.98,-2.54 -16.63,-2.75 -5.35,0.26 -9.06,5.43 -9.66,10.39 -1.12,10.71 -0.74,21.5 -1.06,32.25 -5.16,1.24 -10.51,1.27 -15.79,1.27 0.3,-17.81 -0.51,-35.83 3.08,-53.38 z"
       id="path48"
       inkscape:connector-curvature="0"
       style="opacity:0.41999996;fill:#000000" />
  </g>
  <g
     id="#000001e8"
     transform="matrix(1.2173287,0,0,1.2173287,-72.413387,5.9678088)">
    <path
       d="m 387.34,110.47 c 7.15,-2.93 14.4,3.52 15.46,10.43 2.31,8.89 -8.29,17.61 -16.56,13.7 -6.19,-2.31 -9.49,-9.65 -7.6,-15.88 1.37,-3.93 4.82,-6.9 8.7,-8.25 m -5.17,15.42 c 1.46,3.04 4.12,6.01 7.65,6.41 5.14,-0.05 8.38,-4.62 11.34,-8.19 -2.13,-4.21 -3.88,-9.92 -9.2,-10.92 -6.18,-0.64 -13.6,6.61 -9.79,12.7 z"
       id="path51"
       inkscape:connector-curvature="0"
       style="opacity:0.91000001;fill:#000001" />
    <path
       d="m 348.33,115.35 c 5.33,-3.05 11.43,2.06 11.73,7.54 0.66,6.11 -7.99,10.52 -12.67,6.7 -4.96,-3.21 -5.42,-12.36 0.94,-14.24 m -2.19,2.74 c 0.2,3.12 -0.61,6.48 0.31,9.46 3.93,0.56 8.1,0.91 11.98,-0.14 -0.35,-2.98 -0.54,-5.96 -0.76,-8.94 -3.58,-1.71 -7.88,-2.13 -11.53,-0.38 z"
       id="path53"
       inkscape:connector-curvature="0"
       style="opacity:0.91000001;fill:#000001" />
  </g>
  <text
     xml:space="preserve"
     style="font-size:32px;font-style:normal;font-weight:normal;line-height:125%;letter-spacing:0px;word-spacing:0px;fill:#000000;fill-opacity:1;stroke:none;font-family:Sans"
     x="377.34613"
     y="264.38867"
     id="text3032"
     sodipodi:linespacing="125%"><tspan
       sodipodi:role="line"
       id="tspan3034"
       x="377.34613"
       y="264.38867"
       style="-inkscape-font-specification:Arial;font-family:Arial;font-weight:normal;font-style:normal;font-stretch:normal;font-variant:normal">pour la démocratie</tspan></text>
</svg>
