<?xml version="1.0" encoding="UTF-8" standalone="no"?>
<svg
   xmlns:dc="http://purl.org/dc/elements/1.1/"
   xmlns:cc="http://creativecommons.org/ns#"
   xmlns:rdf="http://www.w3.org/1999/02/22-rdf-syntax-ns#"
   xmlns:svg="http://www.w3.org/2000/svg"
   xmlns="http://www.w3.org/2000/svg"
   xmlns:sodipodi="http://sodipodi.sourceforge.net/DTD/sodipodi-0.dtd"
   xmlns:inkscape="http://www.inkscape.org/namespaces/inkscape"
   width="580"
   height="356.25"
   viewBox="0 0 464 285"
   version="1.1"
   id="svg2"
   inkscape:version="0.48.3.1 r9886"
   sodipodi:docname="logo.svg"
   inkscape:export-filename="/home/io/prog/gv/GentilsVirusSite/img/logo.png"
   inkscape:export-xdpi="90"
   inkscape:export-ydpi="90">
  <metadata
     id="metadata90">
    <rdf:RDF>
      <cc:Work
         rdf:about="">
        <dc:format>image/svg+xml</dc:format>
        <dc:type
           rdf:resource="http://purl.org/dc/dcmitype/StillImage" />
        <dc:title />
      </cc:Work>
    </rdf:RDF>
  </metadata>
  <defs
     id="defs88" />
  <sodipodi:namedview
     pagecolor="#ffffff"
     bordercolor="#666666"
     borderopacity="1"
     objecttolerance="10"
     gridtolerance="10"
     guidetolerance="10"
     inkscape:pageopacity="0"
     inkscape:pageshadow="2"
     inkscape:window-width="1280"
     inkscape:window-height="948"
     id="namedview86"
     showgrid="false"
     inkscape:zoom="1.009153"
     inkscape:cx="288.7349"
     inkscape:cy="277.69844"
     inkscape:window-x="0"
     inkscape:window-y="24"
     inkscape:window-maximized="1"
     inkscape:current-layer="svg2" />
  <g
     id="g3817">
    <path
       d="m 34.591968,18.48935 c 6.500535,-4.041532 14.218399,-7.14572 22.009302,-5.831005 6.804868,1.010383 13.013244,5.173647 16.750443,10.907265 2.191192,5.745792 -1.850339,11.856782 -6.123163,15.484421 -7.632651,2.264232 -15.983526,-1.083422 -23.470097,2.008593 -7.243106,6.013604 -12.319367,15.362688 -11.649836,24.943065 -0.09739,6.14751 6.135337,11.199424 12.088074,10.456853 2.446831,-0.304332 4.199784,-2.203365 6.013604,-3.676332 -5.25886,-2.081632 -11.735049,-5.197994 -12.173287,-11.662009 -0.986036,-5.22234 4.041531,-8.728247 8.375221,-10.140348 7.876117,-2.191192 16.129606,-0.633011 24.115282,-0.01217 5.07626,0.133907 7.109199,5.879698 6.622268,10.176868 C 76.200263,72.173545 72.304811,83.896421 63.138326,90.786501 56.102166,96.167094 46.716561,95.947975 38.30482,95.607123 29.649613,95.156711 20.105756,91.602111 16.112918,83.348623 5.6804109,61.132374 14.116499,31.940832 34.591968,18.48935 z"
       id="path5"
       inkscape:connector-curvature="0"
       style="opacity:1;fill:#266db7;fill-opacity:1" />
    <path
       d="m 245.64024,13.133103 c 4.02936,1.059076 8.07089,2.142499 12.11242,3.201575 -0.30433,11.698529 -1.42427,23.348364 -1.88685,35.03472 0.25563,13.877547 2.39813,27.901174 -0.40172,41.669161 -4.24848,-0.243465 -8.48478,-0.499105 -12.72109,-0.754744 1.93555,-26.342993 -2.08163,-53.014664 2.89724,-79.150712 z"
       id="path8"
       inkscape:connector-curvature="0"
       style="opacity:1;fill:#266db7;fill-opacity:1" />
    <path
       d="m 223.86223,25.683762 c 1.08343,-3.566773 2.30076,-7.084853 3.67634,-10.55424 3.85893,1.07125 8.36304,1.606874 11.07769,4.918008 0.42606,4.102398 -1.36341,8.156103 -2.22771,12.148941 -4.41891,-1.582527 -9.87254,-2.081632 -12.52632,-6.512709 z"
       id="path11"
       inkscape:connector-curvature="0"
       style="opacity:1;fill:#266db7;fill-opacity:1" />
    <path
       d="m 193.59944,25.196831 c 4.23631,-0.01217 8.48478,-0.01217 12.72109,0 -0.073,5.124954 -0.25564,10.262081 -0.20695,15.387035 2.8729,0.267812 5.74579,0.511278 8.63086,0.791263 -0.0609,3.384174 -0.12173,6.756175 -0.14608,10.140348 -2.62943,0.718224 -5.27103,1.363408 -7.91263,2.008593 -0.17043,9.945575 -0.2313,19.891151 -0.26782,29.836726 4.12675,-1.363408 8.27784,-2.653776 12.4898,-3.761546 0.20694,4.272824 0,8.545648 -0.37738,12.806298 -7.07268,1.436448 -14.19405,2.605084 -21.33977,3.615467 -7.58396,-12.635872 -5.89187,-27.925521 -5.59971,-41.985667 -3.32331,-0.462585 -6.64661,-0.92517 -9.95775,-1.412102 -0.0609,-3.944145 -0.12173,-7.876116 -0.1339,-11.820261 4.09022,-0.231293 8.18044,-0.438239 12.28284,-0.645184 -0.0365,-4.978875 -0.10956,-9.969923 -0.1826,-14.96097 z"
       id="path14"
       inkscape:connector-curvature="0"
       style="opacity:1;fill:#266db7;fill-opacity:1" />
    <path
       d="m 267.00436,43.943693 c 8.97172,-6.378803 20.13462,-10.700319 31.27318,-8.971713 2.97028,0.426065 5.03974,3.189401 5.74579,5.952738 1.24167,4.905834 -0.0122,9.957748 -1.14429,14.754023 -5.98926,0.1826 -9.72646,-5.380592 -15.27748,-6.439668 -3.61546,0.06087 -6.96312,1.801646 -10.35946,2.836375 7.4257,3.907626 16.00787,6.062297 22.13103,12.075901 4.97888,4.248477 4.89366,11.637663 3.87111,17.541707 -1.71644,8.107409 -10.33512,12.587179 -18.02864,12.940204 -9.02041,0.462585 -17.79735,-3.48156 -24.29788,-9.568204 0.40172,-7.425705 3.85893,-14.096666 6.76835,-20.767627 6.71965,4.564982 13.41496,9.178658 20.20765,13.646254 0.38955,-2.422484 0.79127,-4.832795 1.18081,-7.243105 -9.15431,-2.77551 -19.97636,-4.358037 -26.01431,-12.623699 -1.26602,-4.771929 -0.49911,-11.126384 3.94414,-14.133186 z"
       id="path17"
       inkscape:connector-curvature="0"
       style="opacity:1;fill:#266db7;fill-opacity:1" />
    <path
       d="m 138.21099,36.189309 c 5.19799,0.255639 10.26208,1.399928 15.05835,3.396347 5.83101,0.706051 12.02721,-0.450412 17.5904,1.959899 3.43287,1.412102 5.70927,4.844968 6.13534,8.472608 2.49552,13.99928 0.14608,28.205506 0.71822,42.302172 -4.80845,0.14608 -9.61689,0.304332 -14.42534,0.438239 0.65736,-9.933403 1.93555,-19.805938 3.03115,-29.702821 -2.8729,-1.850339 -5.75797,-3.688506 -8.63086,-5.514499 -9.78733,9.044753 -8.50913,23.348365 -9.90906,35.424266 -3.94414,-0.06087 -7.90046,-0.10956 -11.84461,-0.09739 0.90083,-18.880768 2.11815,-37.761536 2.27641,-56.678824 z"
       id="path20"
       inkscape:connector-curvature="0"
       style="opacity:1;fill:#266db7;fill-opacity:1" />
    <path
       d="m 224.34917,36.968399 c 4.94235,1.436448 9.8847,2.860723 14.83923,4.309344 -1.33906,16.068739 -2.38596,32.173997 -2.36162,48.303603 -3.56677,0.06087 -7.14571,0.121733 -10.71249,0.146079 -1.9112,-17.51736 -1.98424,-35.168626 -1.76512,-52.759026 z"
       id="path23"
       inkscape:connector-curvature="0"
       style="opacity:1;fill:#266db7;fill-opacity:1" />
    <path
       d="m 95.567962,41.728155 c 9.945578,-3.956319 23.713568,-2.045113 29.471528,7.863943 1.83817,4.126744 3.38417,9.62907 0.52345,13.621908 -8.10741,8.290009 -20.06158,10.736839 -31.15144,11.929821 4.114571,2.349445 8.09524,6.427496 13.24454,5.502326 5.80665,-0.986036 10.14034,-5.404939 15.46007,-7.596131 2.8729,1.7773 5.70927,3.603293 8.39957,5.636232 -7.32832,8.59434 -18.53992,14.230572 -29.97063,13.281056 C 95.920987,91.407339 89.870864,89.556999 86.279744,84.89463 75.628118,71.74748 80.33918,49.251246 95.567962,41.728155 m 15.058358,7.279625 c -6.57358,3.311134 -15.28965,6.22055 -17.03043,14.364479 9.11779,0.596491 18.43036,-1.253849 26.4769,-5.624059 -3.11636,-2.958109 -6.26924,-5.855351 -9.44647,-8.74042 z"
       id="path26"
       inkscape:connector-curvature="0"
       style="opacity:1;fill:#266db7;fill-opacity:1" />
  </g>
  <g
     id="#000000fe"
     transform="matrix(1.2173287,0,0,1.2173287,-367.15085,9.9315289)">
    <path
       d="m 338.95,85.87 c 3.33,-2.93 7.94,-2.93 12.04,-2.08 8.07,1.36 16.23,4.74 24.47,2.47 7.3,-1.32 15.51,-5.31 22.53,-1.01 7.07,5.01 7.96,14.32 11.05,21.76 3.19,8.77 11.82,13.83 16.05,21.95 1.84,3.55 2.08,7.94 0.4,11.6 -4.06,9.03 -13.86,14.18 -16.9,23.8 -2.55,7.51 -4.14,16.38 -10.96,21.35 -2.95,2.48 -7.01,2.06 -10.53,1.48 -7,-1.15 -13.8,-4.51 -21.03,-3.45 -7.4,1.22 -14.62,3.36 -22.02,4.62 -8.57,-4.2 -11.78,-13.81 -14.5,-22.25 -2.87,-10.68 -12.95,-16.96 -18.25,-26.24 -0.23,-3.14 -0.29,-6.32 0.05,-9.45 4.57,-7.28 11.24,-12.97 15.93,-20.16 4.21,-7.93 4.31,-18.33 11.67,-24.39 m 47.38,15.61 c -5.87,1.51 -11.09,5.49 -14.05,10.8 -6.14,11.15 -0.36,27.37 12.12,31.05 11.68,4.47 25.43,-4.19 27.87,-16.12 3.33,-14.32 -11.35,-29.9 -25.94,-25.73 m -38.89,6.93 c -7.17,2.26 -11.44,10.39 -9.61,17.6 0.98,5.98 6.31,10.44 12.03,11.69 9.38,1.32 18.84,-8.12 16.52,-17.6 -1.1,-8.6 -10.84,-14.11 -18.94,-11.69 m 28.39,55.45 c -11.3,3.97 -22.58,-1.89 -32.88,-6.03 0.36,2.03 0.78,4.04 1.22,6.05 9.48,6.56 21.84,8.26 32.9,5.27 11.41,-2.91 21.48,-10.68 27.02,-21.1 -1.72,-0.49 -3.47,-0.88 -5.22,-1.21 -6.33,7.19 -13.35,14.73 -23.04,17.02 z"
       id="path42"
       inkscape:connector-curvature="0"
       style="fill:#000000" />
  </g>
  <g
     id="g3790"
     transform="translate(-8,0)">
    <path
       d="m 173.33307,107.67085 c 4.55281,-2.83638 10.14035,-3.0068 15.27748,-4.09022 6.67096,18.56426 11.13855,37.84675 14.43751,57.26314 16.1783,-12.95238 20.8285,-34.19477 27.7064,-52.71033 0.79127,-3.29897 4.63803,-4.60151 7.66918,-4.01719 4.85714,0.97386 8.91084,4.01719 12.9402,6.69531 -9.51951,26.41603 -19.93984,52.49121 -30.7132,78.42031 -2.09381,4.91801 -3.66416,10.44468 -7.94916,13.97494 -4.27282,3.6885 -10.42033,6.00143 -15.9957,4.44325 -3.51808,-3.49374 -5.30755,-8.32653 -6.33011,-13.08629 -1.67991,-7.98567 -2.88507,-16.06874 -4.4189,-24.09093 -3.68851,-18.85642 -8.60652,-37.45721 -14.10884,-55.86322 -0.93734,-2.37379 -0.90082,-5.44146 1.48514,-6.93877 z"
       id="path32"
       inkscape:connector-curvature="0"
       style="fill:#aaaaaa;fill-opacity:1" />
    <path
       d="m 417.85789,138.07972 c 10.91943,-6.15968 23.48227,-10.78553 36.21552,-9.12996 3.50591,0.23129 6.07447,3.09201 7.79091,5.90404 3.57894,6.1962 3.54242,14.87576 -1.37558,20.35374 -1.19299,1.86251 -3.4207,0.98603 -5.08844,0.55997 -4.86931,-1.6434 -7.93698,-6.08665 -12.30719,-8.54565 -5.59971,-0.3652 -10.85857,2.49552 -15.21661,5.74579 10.2986,4.71106 22.08234,7.66917 29.89759,16.40959 8.64304,11.32116 5.12496,30.85928 -8.39956,36.78768 -12.4898,5.25886 -26.93949,1.86251 -38.17543,-4.88149 -2.33727,-1.53384 -5.66058,-3.04332 -5.67275,-6.29359 0.55997,-8.83781 4.35803,-17.0426 7.36483,-25.25957 10.90727,4.17543 19.3677,13.39061 30.98102,15.88614 -0.69388,-2.83638 -0.71822,-5.98926 -2.26423,-8.50913 -9.81167,-4.50412 -21.42499,-5.49015 -29.80021,-12.83065 -2.54421,-2.51987 -5.58754,-5.52667 -5.35624,-9.40995 0.19477,-7.20658 5.34407,-13.36627 11.40637,-16.78696 z"
       id="path34"
       inkscape:connector-curvature="0"
       style="fill:#aaaaaa;fill-opacity:1" />
    <path
       d="m 344.80599,140.39265 c 5.81883,0.073 11.63766,-0.0487 17.45649,0.36519 -0.12173,12.2585 -1.15646,24.67526 0.96169,36.83637 2.1912,7.42571 14.07232,8.55782 17.54171,1.53383 1.38776,-12.45327 -2.28858,-24.73611 -2.97028,-37.12852 5.77014,-0.47476 11.57679,-0.52345 17.37128,-0.55997 2.67812,20.68241 6.18403,41.64481 3.50591,62.522 -7.69352,2.86072 -15.84962,0.59649 -23.77443,0.97386 -6.78052,0.14608 -13.8532,0.7304 -20.32939,-1.69208 -4.05371,-1.4608 -7.1579,-5.12496 -7.75439,-9.40995 -3.33548,-17.62692 -1.43644,-35.63122 -2.00859,-53.44073 z"
       id="path36"
       inkscape:connector-curvature="0"
       style="fill:#aaaaaa;fill-opacity:1" />
    <path
       d="m 263.3667,104.33537 c 4.99105,-1.48514 11.84461,1.03473 12.69674,6.68313 -0.0609,3.35983 0.24346,7.24311 -1.86251,10.07949 -5.86753,5.86752 -18.29645,0.59649 -17.55388,-7.77873 1.48514,-3.32331 2.9581,-7.75439 6.71965,-8.98389 z"
       id="path39"
       inkscape:connector-curvature="0"
       style="fill:#aaaaaa;fill-opacity:1" />
    <path
       d="m 257.14615,131.99308 c 6.22055,1.78947 12.56283,3.20157 18.67382,5.38059 -0.83995,21.40064 -1.19298,42.8378 -2.05728,64.23844 -4.75976,0.26781 -9.50734,0.64518 -14.26709,0.8643 -2.30076,-23.4214 -2.98246,-46.97672 -2.34945,-70.48333 z"
       id="path45"
       inkscape:connector-curvature="0"
       style="fill:#aaaaaa;fill-opacity:1" />
    <path
       d="m 286.70289,141.58563 c 0.45041,-2.98246 2.30075,-5.97709 5.42929,-6.65879 5.07626,-1.21733 9.89688,1.26602 14.64446,2.66595 9.02041,0.34085 18.04081,-0.75474 27.07339,-0.64518 2.13033,3.8711 4.91801,7.46222 6.15969,11.74722 1.09559,3.27461 -1.07125,7.21876 -4.54064,7.76655 -7.03616,1.71644 -13.36627,-3.09201 -20.24418,-3.34765 -6.51271,0.31651 -11.02899,6.6101 -11.75939,12.64805 -1.36341,13.03759 -0.90083,26.17256 -1.29037,39.25885 -6.28142,1.50948 -12.79413,1.546 -19.22162,1.546 0.3652,-21.68062 -0.62084,-43.61688 3.74937,-64.981 z"
       id="path48"
       inkscape:connector-curvature="0"
       style="fill:#aaaaaa;fill-opacity:1" />
  </g>
  <g
     id="#000001e8"
     transform="matrix(1.2173287,0,0,1.2173287,-367.15085,9.9315289)">
    <path
       d="m 387.34,110.47 c 7.15,-2.93 14.4,3.52 15.46,10.43 2.31,8.89 -8.29,17.61 -16.56,13.7 -6.19,-2.31 -9.49,-9.65 -7.6,-15.88 1.37,-3.93 4.82,-6.9 8.7,-8.25 m -5.17,15.42 c 1.46,3.04 4.12,6.01 7.65,6.41 5.14,-0.05 8.38,-4.62 11.34,-8.19 -2.13,-4.21 -3.88,-9.92 -9.2,-10.92 -6.18,-0.64 -13.6,6.61 -9.79,12.7 z"
       id="path51"
       inkscape:connector-curvature="0"
       style="opacity:0.91000001;fill:#000001" />
    <path
       d="m 348.33,115.35 c 5.33,-3.05 11.43,2.06 11.73,7.54 0.66,6.11 -7.99,10.52 -12.67,6.7 -4.96,-3.21 -5.42,-12.36 0.94,-14.24 m -2.19,2.74 c 0.2,3.12 -0.61,6.48 0.31,9.46 3.93,0.56 8.1,0.91 11.98,-0.14 -0.35,-2.98 -0.54,-5.96 -0.76,-8.94 -3.58,-1.71 -7.88,-2.13 -11.53,-0.38 z"
       id="path53"
       inkscape:connector-curvature="0"
       style="opacity:0.91000001;fill:#000001" />
  </g>
  <text
     xml:space="preserve"
     style="font-size:32px;font-style:normal;font-weight:normal;line-height:125%;letter-spacing:0px;word-spacing:0px;fill:#000000;fill-opacity:1;stroke:none;font-family:Sans"
     x="89.008102"
     y="269.95239"
     id="text3032"
     sodipodi:linespacing="125%"><tspan
       sodipodi:role="line"
       id="tspan3034"
       x="89.008102"
       y="269.95239"
       style="font-size:25.60000038px;font-style:normal;font-variant:normal;font-weight:bold;font-stretch:normal;font-family:Purisa;-inkscape-font-specification:Purisa Bold">pour la démocratie</tspan></text>
  <text
     xml:space="preserve"
     style="font-size:32px;font-style:normal;font-weight:normal;line-height:125%;letter-spacing:0px;word-spacing:0px;fill:#000000;fill-opacity:1;stroke:none;font-family:Sans"
     x="85.695503"
     y="25.680576"
     id="text3032-6"
     sodipodi:linespacing="125%"><tspan
       sodipodi:role="line"
       id="tspan3034-2"
       x="85.695503"
       y="25.680576"
       style="font-size:25.60000038px;font-style:normal;font-variant:normal;font-weight:bold;font-stretch:normal;font-family:Purisa;-inkscape-font-specification:Purisa Bold">Les</tspan></text>
</svg>
